<svg width="22" height="25" viewBox="0 0 22 25" fill="none" xmlns="http://www.w3.org/2000/svg">
<path d="M1.67432 15.5472L6.34932 5.56396L16.5493 8.28666L19.5243 13.7321L15.2743 23.2615H6.34932L1.67432 15.5472Z" fill="#945900"/>
<path d="M15.8862 2.50244C14.8696 3.44238 13.9464 4.43115 13.1312 5.4248C11.7906 3.59473 10.1259 1.7334 8.25 0C3.42522 4.44922 0 10.2539 0 13.75C0 19.9658 4.92054 25 11 25C17.0795 25 22 19.9658 22 13.75C22 11.1523 19.4464 5.78613 15.8862 2.50244ZM14.9335 19.1357C13.8679 19.873 12.5616 20.3125 11.1424 20.3125C7.60031 20.3125 4.71429 17.9819 4.71429 14.1992C4.71429 12.313 5.90464 10.6523 8.28634 7.8125C8.63009 8.20313 13.1421 13.9355 13.1421 13.9355L16.0212 10.6699C16.2238 10.9995 16.4075 11.3301 16.5732 11.6416C17.9192 14.1895 17.3545 17.4512 14.9335 19.1357Z" fill="#5C4600"/>
</svg>
